<svg width="38" height="53" viewBox="0 0 38 53" fill="none" xmlns="http://www.w3.org/2000/svg">
<path d="M11.1262 49.6312L11.1036 52.2089L5.92521 52.1634L5.94782 49.5858C4.57443 49.5737 3.26205 49.019 2.29939 48.0437C1.33674 47.0683 0.802663 45.7523 0.814653 44.385L1.15373 5.71981C1.16572 4.35252 1.72279 3.04602 2.7024 2.08772C3.68202 1.12942 5.00392 0.597821 6.37731 0.609865L32.2692 0.836923C33.6426 0.848967 34.9549 1.40367 35.9176 2.379C36.8802 3.35434 37.4143 4.67041 37.4023 6.03769L37.0633 44.7029C37.0513 46.0702 36.4942 47.3767 35.5146 48.335C34.535 49.2933 33.2131 49.8249 31.8397 49.8128L31.8171 52.3905L26.6387 52.3451L26.6613 49.7674L11.1262 49.6312ZM6.3321 5.76522L6.21907 18.6536L32.1109 18.8807L32.224 5.99228L6.3321 5.76522ZM5.99303 44.4304L31.8849 44.6575L32.0657 24.036L6.17386 23.809L5.99303 44.4304ZM8.74045 26.4094L13.9188 26.4548L13.851 34.1878L8.67263 34.1424L8.74045 26.4094ZM8.87608 10.9433L14.0544 10.9887L14.0092 16.1441L8.83087 16.0986L8.87608 10.9433Z" fill="#00D387"/>
</svg>
