<svg width="217" height="217" viewBox="0 0 217 217" fill="none" xmlns="http://www.w3.org/2000/svg">
<path d="M206.917 17.7329C206.968 15.8596 206.447 13.6939 204.874 12.1215C203.302 10.5491 201.136 10.0277 199.263 10.0786C197.389 10.1337 195.601 10.6465 193.774 11.4306C190.121 12.9988 186.298 15.7113 182.695 19.3138C181.119 20.8905 179.724 22.5052 178.512 24.1327L183.996 29.6044C185.094 28.015 186.467 26.3324 188.091 24.7092C191.108 21.6873 194.355 19.4791 196.779 18.445C197.864 17.9788 198.72 17.7923 199.254 17.7414C199.203 18.2712 199.017 19.1316 198.551 20.2166C197.512 22.6366 195.304 25.8832 192.287 28.9008C190.667 30.5241 188.985 31.9015 187.396 32.9992L192.876 38.4709C194.499 37.2587 196.109 35.8685 197.682 34.2961C201.284 30.6936 203.997 26.8749 205.565 23.2215C206.345 21.3948 206.866 19.6063 206.917 17.7329ZM187.192 43.5695L173.388 29.7993L111.679 91.5468L125.453 105.321L187.192 43.5695ZM121.215 111.848L114.137 104.77C105.321 115.027 93.2845 127.911 79.5949 141.601C64.4218 156.774 50.1812 169.955 39.4583 178.94C36.7458 181.229 34.2876 183.221 32.0837 184.916C33.7791 182.712 35.771 180.254 38.0173 177.542C47.0449 166.819 60.2259 152.578 75.399 137.405C89.0886 123.715 101.973 111.679 112.23 102.863L105.152 95.7851C89.7667 105.915 72.4746 112.526 56.8353 119.223C39.9246 126.428 24.6667 133.76 16.6988 147.111L16.614 147.238L16.5292 147.365C6.5269 167.454 8.68842 186.103 19.4537 197.08C19.496 197.165 19.5808 197.25 19.6656 197.334C19.7503 197.419 19.8351 197.504 19.9199 197.546C30.897 208.311 49.5455 210.473 69.5925 200.471C81.2478 194.622 88.1562 179.491 95.9546 162.029C103.202 145.839 110.916 127.403 121.215 111.848ZM100.744 132.997C96.4632 141.898 92.6488 150.756 89.0038 158.893C81.2478 176.228 73.746 189.875 66.2019 193.605C63.3623 195.003 60.6497 196.148 57.9796 196.995C59.9716 188.815 66.329 176.609 76.9671 162.114C83.4517 153.299 91.4197 143.551 100.744 132.997ZM84.9351 115.408C74.0427 125.072 63.9556 133.379 54.8857 140.033C40.3484 150.671 28.1421 157.028 19.9623 159.02C20.8099 156.393 21.9119 153.68 23.3105 150.925C29.7103 140.372 43.2304 133.336 59.8445 126.216C67.7701 122.825 76.289 119.392 84.9351 115.408ZM64.1675 167.115C55.8605 179.576 50.8169 190.087 49.8845 198.945C42.0437 200.089 35.3048 198.775 30.0494 195.766C30.2613 195.639 30.4308 195.512 30.6427 195.385C34.2453 193.011 38.865 189.409 44.3324 184.831C50.0964 179.957 56.8353 173.939 64.1675 167.115ZM49.8421 152.875C43.0185 160.165 37.0425 166.903 32.1685 172.668C27.5912 178.135 23.9886 182.755 21.6152 186.357C21.488 186.569 21.3609 186.739 21.2337 186.951C18.2246 181.695 16.9107 174.956 18.055 167.115C26.8707 166.225 37.3816 161.182 49.8421 152.875Z" fill="#FEFEF2"/>
</svg>
